<svg width="1631" height="1015" viewBox="0 0 1631 1015" fill="none" xmlns="http://www.w3.org/2000/svg">
<g opacity="0.78">
<path d="M1000.11 498.085L1073.02 543.55C1088.45 553.168 1096.16 557.977 1104.5 559.746C1110.62 561.045 1116.94 561.144 1123.1 560.039C1131.49 558.533 1139.35 553.969 1155.07 544.841" stroke="url(#paint0_linear_172_2967)" stroke-width="4.40175" stroke-linecap="round"/>
<path opacity="0.6" d="M827.778 596.939L1068.24 737.208" stroke="url(#paint1_linear_172_2967)" stroke-width="4.40175" stroke-linecap="round"/>
<path d="M760.987 258.961L880.855 186.659C904.49 172.403 916.307 165.275 929.415 165.093C942.523 164.91 954.535 171.706 978.558 185.298L982.982 187.801C1006.35 201.024 1018.04 207.636 1030.83 207.616C1043.61 207.597 1055.28 200.95 1078.61 187.657L1145.72 149.418" stroke="url(#paint2_linear_172_2967)" stroke-width="4.40175" stroke-linecap="round"/>
<path d="M736.94 771.942L777.694 794.912C798.201 806.47 823.058 807.296 844.286 797.124C863.467 787.933 885.726 787.675 905.115 796.419L906.595 797.087C929.19 807.277 955.344 805.748 976.598 792.996L1045.93 751.399C1083.53 728.837 1102.33 717.556 1123.16 717.301C1143.99 717.047 1163.06 727.865 1201.2 749.502L1269.4 788.184C1309.34 810.84 1329.31 822.168 1351 821.443C1372.7 820.717 1391.87 808.08 1430.21 782.806L1531.79 715.835" stroke="url(#paint3_linear_172_2967)" stroke-width="4.40175" stroke-linecap="round"/>
<path d="M635.412 779.957L625.194 786.343C602.475 800.542 591.116 807.642 578.752 808.841C574.058 809.296 569.324 809.12 564.676 808.318C552.435 806.207 541.633 798.285 520.028 782.442C499.35 767.278 489.012 759.697 477.261 757.468C472.795 756.621 468.238 756.354 463.703 756.674C451.773 757.516 440.62 763.839 418.313 776.486L2.20117 1012.4" stroke="url(#paint4_linear_172_2967)" stroke-width="4.40175" stroke-linecap="round"/>
<path opacity="0.6" d="M231.978 487.399L398.271 386.615C424.645 370.631 437.831 362.639 452.443 362.565C467.056 362.491 480.323 370.348 506.858 386.063L536.127 403.397C562.387 418.949 575.517 426.725 589.993 426.721C604.469 426.716 617.594 418.933 643.845 403.366L819.768 299.039" stroke="#0CABBB" stroke-width="4.40175" stroke-linecap="round"/>
<path d="M636.747 725.187L102.393 416.597" stroke="url(#paint5_linear_172_2967)" stroke-width="4.40175" stroke-linecap="round"/>
<path d="M731.593 726.521L771.707 702.623C781.962 696.514 787.089 693.459 787.33 688.756C787.57 684.052 782.78 680.491 773.202 673.368L763.329 666.027C753.802 658.942 749.038 655.4 749.264 650.712C749.491 646.024 754.573 642.957 764.738 636.823L819.762 603.619" stroke="#3F13B9" stroke-width="4.40175" stroke-linecap="round"/>
<path d="M731.594 726.522L771.708 702.624C781.963 696.515 787.091 693.46 787.331 688.756C787.571 684.053 782.782 680.492 773.203 673.369L763.401 666.08C753.846 658.975 749.068 655.422 749.302 650.726C749.536 646.029 754.643 642.969 764.858 636.848L1053.58 463.845C1064.89 457.068 1070.54 453.68 1070.53 448.678C1070.52 443.676 1064.85 440.315 1053.5 433.594L544.57 132.052" stroke="url(#paint6_linear_172_2967)" stroke-width="4.40175" stroke-linecap="round"/>
<path d="M683.5 717.564C700.9 717.564 716.441 721.892 727.489 728.655C738.61 735.464 744.558 744.282 744.558 753.239C744.558 762.196 738.61 771.015 727.489 777.824C716.441 784.588 700.9 788.915 683.5 788.915C666.101 788.915 650.56 784.588 639.513 777.824C628.392 771.015 622.444 762.196 622.444 753.239C622.444 744.282 628.392 735.464 639.513 728.655C650.56 721.892 666.101 717.565 683.5 717.564Z" stroke="#00942D" stroke-width="8.80349"/>
<g filter="url(#filter0_f_172_2967)">
<path d="M683.5 717.564C700.9 717.564 716.441 721.892 727.489 728.655C738.61 735.464 744.558 744.282 744.558 753.239C744.558 762.196 738.61 771.015 727.489 777.824C716.441 784.588 700.9 788.915 683.5 788.915C666.101 788.915 650.56 784.588 639.513 777.824C628.392 771.015 622.444 762.196 622.444 753.239C622.444 744.282 628.392 735.464 639.513 728.655C650.56 721.892 666.101 717.565 683.5 717.564Z" stroke="#00942D" stroke-width="8.80349"/>
</g>
<ellipse cx="830.146" cy="600.641" rx="21.3742" ry="14.6948" fill="#00942D"/>
<g filter="url(#filter1_f_172_2967)">
<ellipse cx="830.146" cy="600.641" rx="21.3742" ry="14.6948" fill="#00942D"/>
</g>
<ellipse cx="227.966" cy="885.493" rx="21.3742" ry="14.6948" fill="#00942D"/>
<g filter="url(#filter2_f_172_2967)">
<ellipse cx="227.966" cy="885.493" rx="21.3742" ry="14.6948" fill="#00942D"/>
</g>
<path d="M1216.53 741.609C1224.64 741.609 1231.77 743.808 1236.76 747.131C1241.77 750.474 1244.19 754.609 1244.19 758.582C1244.19 762.555 1241.77 766.69 1236.76 770.033C1231.77 773.356 1224.64 775.555 1216.53 775.555C1208.42 775.555 1201.28 773.356 1196.3 770.033C1191.29 766.69 1188.87 762.555 1188.87 758.582C1188.87 754.609 1191.29 750.474 1196.3 747.131C1201.28 743.808 1208.42 741.609 1216.53 741.609Z" stroke="#3F13B9" stroke-width="8.80349"/>
<g filter="url(#filter3_f_172_2967)">
<path d="M1216.53 741.609C1224.64 741.609 1231.77 743.808 1236.76 747.131C1241.77 750.474 1244.19 754.609 1244.19 758.582C1244.19 762.555 1241.77 766.69 1236.76 770.033C1231.77 773.356 1224.64 775.555 1216.53 775.555C1208.42 775.555 1201.28 773.356 1196.3 770.033C1191.29 766.69 1188.87 762.555 1188.87 758.582C1188.87 754.609 1191.29 750.474 1196.3 747.131C1201.28 743.808 1208.42 741.609 1216.53 741.609Z" stroke="#3F13B9" stroke-width="8.80349"/>
</g>
<ellipse cx="879.881" cy="328.426" rx="42.7484" ry="26.7177" fill="#30E6F8" fill-opacity="0.6"/>
<ellipse cx="879.88" cy="328.428" rx="32.0613" ry="18.7024" fill="#019830"/>
<g filter="url(#filter4_f_172_2967)">
<ellipse cx="879.88" cy="328.428" rx="32.0613" ry="18.7024" fill="#019830"/>
</g>
<ellipse cx="879.88" cy="328.424" rx="21.3742" ry="10.6871" fill="#1B2FAC"/>
<path d="M852.483 224.162C867.322 209.323 891.381 209.323 906.22 224.162C921.059 239.001 921.059 263.06 906.22 277.899L906.218 277.901L901.092 282.971L901.091 282.972C897.313 286.68 892.409 291.448 886.381 297.276C882.461 301.067 876.241 301.067 872.322 297.275L872.321 297.274L857.245 282.61L857.244 282.608C856.296 281.678 855.426 280.82 854.632 280.035L852.483 277.899C837.644 263.06 837.644 239.001 852.483 224.162ZM901.08 229.303C889.08 217.303 869.624 217.303 857.624 229.303C845.624 241.302 845.623 260.757 857.622 272.757L864.042 279.093L870.028 284.928C872.25 287.087 874.699 289.461 877.375 292.05C878.477 293.115 880.226 293.116 881.328 292.051L895.988 277.794C898.012 275.807 899.709 274.129 901.08 272.759C913.08 260.759 913.08 241.303 901.08 229.303ZM879.351 238.861C886.728 238.861 892.709 244.841 892.709 252.219C892.709 259.596 886.729 265.577 879.351 265.577C871.974 265.577 865.994 259.596 865.994 252.219C865.994 244.841 871.974 238.861 879.351 238.861ZM879.351 246.131C875.989 246.131 873.263 248.856 873.263 252.219C873.263 255.581 875.989 258.307 879.351 258.307C882.714 258.307 885.44 255.581 885.44 252.219C885.44 248.856 882.713 246.131 879.351 246.131Z" fill="url(#paint7_linear_172_2967)" stroke="url(#paint8_linear_172_2967)" stroke-width="0.792314"/>
</g>
<g filter="url(#filter5_d_172_2967)">
<path d="M1463.58 132.052L1532.21 80.4163C1534.59 78.6256 1534.54 75.0375 1532.12 73.3115L1517.82 63.1431C1514.86 61.0396 1515.57 56.4609 1519.03 55.3609L1552.96 44.5713C1555.02 43.9177 1557.24 44.8496 1558.22 46.7725L1567.06 64.1645C1568.54 67.0888 1572.59 67.4194 1574.53 64.7749L1597.84 33.0127" stroke="#20B7F2" stroke-width="6.60262" stroke-linecap="round"/>
<path d="M1463.58 132.052L1532.21 80.4163C1534.59 78.6256 1534.54 75.0375 1532.12 73.3115L1517.82 63.1431C1514.86 61.0396 1515.57 56.4609 1519.03 55.3609L1552.96 44.5713C1555.02 43.9177 1557.24 44.8496 1558.22 46.7725L1567.06 64.1645C1568.54 67.0888 1572.59 67.4194 1574.53 64.7749L1597.84 33.0127" stroke="black" stroke-opacity="0.12" stroke-width="6.60262" stroke-linecap="round"/>
</g>
<g filter="url(#filter6_d_172_2967)">
<rect x="1591.23" y="4.40137" width="35.214" height="35.214" rx="17.607" fill="#20B7F2"/>
<path d="M1617.15 24.599C1618.09 24.2833 1618.16 22.9824 1617.27 22.56L1611.61 19.9001C1611.36 19.7798 1611.16 19.5658 1611.06 19.3023L1608.8 13.4775C1608.44 12.5527 1607.13 12.5373 1606.75 13.4533L1600.62 28.2232C1600.26 29.0957 1601.09 29.9892 1601.99 29.6886L1617.15 24.599Z" fill="#D9FDFF"/>
</g>
<g filter="url(#filter7_d_172_2967)">
<rect x="1434.97" y="121.048" width="35.214" height="35.214" rx="17.607" fill="#20B7F2"/>
<circle opacity="0.4" cx="1452.58" cy="138.655" r="11.0044" fill="#303543"/>
<circle cx="1452.58" cy="138.655" r="4.40175" fill="#D9FDFF"/>
</g>
<defs>
<filter id="filter0_f_172_2967" x="609.239" y="704.36" width="148.524" height="97.7603" filterUnits="userSpaceOnUse" color-interpolation-filters="sRGB">
<feFlood flood-opacity="0" result="BackgroundImageFix"/>
<feBlend mode="normal" in="SourceGraphic" in2="BackgroundImageFix" result="shape"/>
<feGaussianBlur stdDeviation="4.40175" result="effect1_foregroundBlur_172_2967"/>
</filter>
<filter id="filter1_f_172_2967" x="799.968" y="577.143" width="60.3553" height="46.9966" filterUnits="userSpaceOnUse" color-interpolation-filters="sRGB">
<feFlood flood-opacity="0" result="BackgroundImageFix"/>
<feBlend mode="normal" in="SourceGraphic" in2="BackgroundImageFix" result="shape"/>
<feGaussianBlur stdDeviation="4.40175" result="effect1_foregroundBlur_172_2967"/>
</filter>
<filter id="filter2_f_172_2967" x="197.789" y="861.994" width="60.3553" height="46.9966" filterUnits="userSpaceOnUse" color-interpolation-filters="sRGB">
<feFlood flood-opacity="0" result="BackgroundImageFix"/>
<feBlend mode="normal" in="SourceGraphic" in2="BackgroundImageFix" result="shape"/>
<feGaussianBlur stdDeviation="4.40175" result="effect1_foregroundBlur_172_2967"/>
</filter>
<filter id="filter3_f_172_2967" x="1166.86" y="719.601" width="99.3365" height="77.962" filterUnits="userSpaceOnUse" color-interpolation-filters="sRGB">
<feFlood flood-opacity="0" result="BackgroundImageFix"/>
<feBlend mode="normal" in="SourceGraphic" in2="BackgroundImageFix" result="shape"/>
<feGaussianBlur stdDeviation="8.80349" result="effect1_foregroundBlur_172_2967"/>
</filter>
<filter id="filter4_f_172_2967" x="830.212" y="292.119" width="99.3365" height="72.6192" filterUnits="userSpaceOnUse" color-interpolation-filters="sRGB">
<feFlood flood-opacity="0" result="BackgroundImageFix"/>
<feBlend mode="normal" in="SourceGraphic" in2="BackgroundImageFix" result="shape"/>
<feGaussianBlur stdDeviation="8.80349" result="effect1_foregroundBlur_172_2967"/>
</filter>
<filter id="filter5_d_172_2967" x="1447.08" y="25.3092" width="158.463" height="123.25" filterUnits="userSpaceOnUse" color-interpolation-filters="sRGB">
<feFlood flood-opacity="0" result="BackgroundImageFix"/>
<feColorMatrix in="SourceAlpha" type="matrix" values="0 0 0 0 0 0 0 0 0 0 0 0 0 0 0 0 0 0 127 0" result="hardAlpha"/>
<feOffset dx="-4.40175" dy="4.40175"/>
<feGaussianBlur stdDeviation="4.40175"/>
<feComposite in2="hardAlpha" operator="out"/>
<feColorMatrix type="matrix" values="0 0 0 0 0.12549 0 0 0 0 0.717647 0 0 0 0 0.94902 0 0 0 0.25 0"/>
<feBlend mode="normal" in2="BackgroundImageFix" result="effect1_dropShadow_172_2967"/>
<feBlend mode="normal" in="SourceGraphic" in2="effect1_dropShadow_172_2967" result="shape"/>
</filter>
<filter id="filter6_d_172_2967" x="1578.03" y="-0.000379086" width="52.8209" height="52.8209" filterUnits="userSpaceOnUse" color-interpolation-filters="sRGB">
<feFlood flood-opacity="0" result="BackgroundImageFix"/>
<feColorMatrix in="SourceAlpha" type="matrix" values="0 0 0 0 0 0 0 0 0 0 0 0 0 0 0 0 0 0 127 0" result="hardAlpha"/>
<feOffset dx="-4.40175" dy="4.40175"/>
<feGaussianBlur stdDeviation="4.40175"/>
<feComposite in2="hardAlpha" operator="out"/>
<feColorMatrix type="matrix" values="0 0 0 0 0.12549 0 0 0 0 0.717647 0 0 0 0 0.94902 0 0 0 0.25 0"/>
<feBlend mode="normal" in2="BackgroundImageFix" result="effect1_dropShadow_172_2967"/>
<feBlend mode="normal" in="SourceGraphic" in2="effect1_dropShadow_172_2967" result="shape"/>
</filter>
<filter id="filter7_d_172_2967" x="1421.77" y="116.646" width="52.8209" height="52.8209" filterUnits="userSpaceOnUse" color-interpolation-filters="sRGB">
<feFlood flood-opacity="0" result="BackgroundImageFix"/>
<feColorMatrix in="SourceAlpha" type="matrix" values="0 0 0 0 0 0 0 0 0 0 0 0 0 0 0 0 0 0 127 0" result="hardAlpha"/>
<feOffset dx="-4.40175" dy="4.40175"/>
<feGaussianBlur stdDeviation="4.40175"/>
<feComposite in2="hardAlpha" operator="out"/>
<feColorMatrix type="matrix" values="0 0 0 0 0.12549 0 0 0 0 0.717647 0 0 0 0 0.94902 0 0 0 0.25 0"/>
<feBlend mode="normal" in2="BackgroundImageFix" result="effect1_dropShadow_172_2967"/>
<feBlend mode="normal" in="SourceGraphic" in2="effect1_dropShadow_172_2967" result="shape"/>
</filter>
<linearGradient id="paint0_linear_172_2967" x1="1002.78" y1="496.749" x2="1163.09" y2="543.505" gradientUnits="userSpaceOnUse">
<stop stop-color="#07BCCE"/>
<stop offset="0.739583" stop-color="#30E6F8"/>
<stop offset="1" stop-color="#30E6F8" stop-opacity="0"/>
</linearGradient>
<linearGradient id="paint1_linear_172_2967" x1="831.924" y1="594.293" x2="1088.45" y2="652.896" gradientUnits="userSpaceOnUse">
<stop stop-color="#30E6F8"/>
<stop offset="1" stop-color="#30E6F8"/>
</linearGradient>
<linearGradient id="paint2_linear_172_2967" x1="1147.06" y1="149.418" x2="769.002" y2="257.625" gradientUnits="userSpaceOnUse">
<stop stop-color="#30E6F8" stop-opacity="0"/>
<stop offset="0.213542" stop-color="#30E6F8"/>
<stop offset="1" stop-color="#07BCCE"/>
</linearGradient>
<linearGradient id="paint3_linear_172_2967" x1="738.276" y1="769.27" x2="1531.79" y2="705.148" gradientUnits="userSpaceOnUse">
<stop stop-color="#30E6F8"/>
<stop offset="0.71875" stop-color="#3F13B9"/>
<stop offset="1" stop-color="#3F13B9" stop-opacity="0"/>
</linearGradient>
<linearGradient id="paint4_linear_172_2967" x1="636.748" y1="779.957" x2="3.53708" y2="1012.4" gradientUnits="userSpaceOnUse">
<stop stop-color="#3F13B9"/>
<stop offset="0.723958" stop-color="#3F13B9"/>
<stop offset="1" stop-color="#3F13B9" stop-opacity="0"/>
</linearGradient>
<linearGradient id="paint5_linear_172_2967" x1="102.393" y1="416.597" x2="636.747" y2="726.522" gradientUnits="userSpaceOnUse">
<stop stop-color="#07BCCE" stop-opacity="0"/>
<stop offset="0.208333" stop-color="#07BCCE"/>
<stop offset="1" stop-color="#07BCCE"/>
</linearGradient>
<linearGradient id="paint6_linear_172_2967" x1="555.257" y1="133.388" x2="811.748" y2="726.522" gradientUnits="userSpaceOnUse">
<stop stop-color="#07BDCF" stop-opacity="0"/>
<stop offset="0.28021" stop-color="#07BDCF"/>
<stop offset="1" stop-color="#07BDCF"/>
</linearGradient>
<linearGradient id="paint7_linear_172_2967" x1="879.351" y1="213.429" x2="879.351" y2="299.723" gradientUnits="userSpaceOnUse">
<stop stop-color="#019830"/>
<stop offset="1" stop-color="#30E6F8"/>
</linearGradient>
<linearGradient id="paint8_linear_172_2967" x1="879.351" y1="213.429" x2="879.351" y2="299.723" gradientUnits="userSpaceOnUse">
<stop stop-color="#019830"/>
<stop offset="1" stop-color="#019830" stop-opacity="0"/>
</linearGradient>
</defs>
</svg>